<svg width="300" height="300" viewBox="0 0 300 300" fill="none" xmlns="http://www.w3.org/2000/svg">
<path fill-rule="evenodd" clip-rule="evenodd" d="M151.19 289.387C178.431 193.489 177.643 193.06 197.324 124.697L202.054 127.388C204.629 128.845 206.731 127.645 206.731 124.731V92.1397C211.951 74.1256 216.051 60.2079 217.242 56.0171H238.57L274 88.3432L250.736 108.14L268.342 126.874L152.355 289.387C151.786 290.304 150.998 290.098 151.173 289.387H151.19Z" fill="white"/>
<path fill-rule="evenodd" clip-rule="evenodd" d="M163.865 82.7127C164.916 82.7127 165.765 83.2783 165.765 83.9982V100.71C165.765 101.395 164.977 101.978 163.926 101.978H135.284C134.233 101.978 133.357 101.404 133.357 100.693V83.9811C133.357 83.2783 134.233 82.7127 135.284 82.7127H163.926H163.865ZM199.216 64.2015L167.701 82.1128C168.069 82.6699 168.288 83.3126 168.288 83.9982V100.71C168.288 101.567 167.938 102.338 167.324 102.981L199.12 121.063C201.222 122.306 203.061 121.295 203.061 118.835V66.4554C203.061 63.9872 201.222 62.976 199.12 64.2101L199.216 64.2015ZM130.782 100.71V83.9982C130.782 83.3126 131.001 82.6699 131.36 82.1128L99.8454 64.2015C97.6819 62.976 95.9039 63.9872 95.9039 66.4468V118.81C95.9039 121.295 97.6732 122.238 99.8454 121.038L131.684 102.955C131.115 102.269 130.773 101.498 130.773 100.641L130.782 100.71Z" fill="white"/>
<path fill-rule="evenodd" clip-rule="evenodd" d="M146.627 289.387H147.801C120.56 193.489 121.349 193.06 101.676 124.697L96.9462 127.388C94.371 128.845 92.2601 127.645 92.2601 124.731V92.1397C87.0135 74.117 82.8968 60.1993 81.6705 56H60.3862L25 88.3346L48.2551 108.131L30.6495 126.865L146.618 289.353L146.627 289.387Z" fill="white"/>
<path d="M148.633 136.858C153.383 136.858 157.234 133.067 157.234 128.391C157.234 123.715 153.383 119.924 148.633 119.924C143.882 119.924 140.032 123.715 140.032 128.391C140.032 133.067 143.882 136.858 148.633 136.858Z" fill="white"/>
<path d="M148.633 187.224C153.383 187.224 157.234 183.433 157.234 178.757C157.234 174.08 153.383 170.29 148.633 170.29C143.882 170.29 140.032 174.08 140.032 178.757C140.032 183.433 143.882 187.224 148.633 187.224Z" fill="white"/>
<path d="M148.633 237.59C153.383 237.59 157.234 233.799 157.234 229.123C157.234 224.446 153.383 220.656 148.633 220.656C143.882 220.656 140.032 224.446 140.032 229.123C140.032 233.799 143.882 237.59 148.633 237.59Z" fill="white"/>
</svg>
